<?xml version="1.0" encoding="UTF-8"?> <svg xmlns="http://www.w3.org/2000/svg" id="Capa_1" data-name="Capa 1" viewBox="0 0 621.83 395.55"><defs><style>.cls-1,.cls-3{fill:#fff;}.cls-2{fill:#de0a2b;}.cls-3{fill-rule:evenodd;}</style></defs><title>femsa</title><rect class="cls-1" width="621.83" height="395.48"></rect><rect class="cls-2" x="33.23" y="34.36" width="554.96" height="146.76"></rect><path class="cls-3" d="M198.86,59.52v.12h-.13a17.21,17.21,0,0,0-8.26,2.63,57.81,57.81,0,0,0-9.4,6.51c-2.08,1.76-4.18,3.68-6.26,5.77s-3.92,4-5.76,6c-1.34,1.5-2.59,3-3.75,4.38s-2.25,2.67-3.26,4q-2.26,2.88-4.26,5.89t-3.88,5.75a104.24,104.24,0,0,0-7.39,15,43.93,43.93,0,0,0-3.25,13.64,12.41,12.41,0,0,0-.13,1.64v1.5q0,9.14,4.25,14.15t13.41,6.89a24.69,24.69,0,0,0,4.13.61,29.11,29.11,0,0,0,3.88.25,27.25,27.25,0,0,0,4.64-.37c1.58-.16,3.08-.37,4.51-.62a48.41,48.41,0,0,0,4.88-1.25c1.67-.51,3.39-1,5.13-1.51l3-.75c1-.24,2-.5,3.13-.74,2.76-.68,5.26-1.26,7.51-1.76s4.46-1.13,6.64-1.63,4.39-1,6.64-1.5,4.76-1,7.52-1.38a3.82,3.82,0,0,1,.87-.13l1-.24c1.83-.34,3.54-.63,5.14-.89s3.16-.62,4.76-.86a34,34,0,0,1,4.25-.51,44.9,44.9,0,0,1,4.76-.25h1.63a2.19,2.19,0,0,0,.75.13h.88a73.37,73.37,0,0,1,21.16,3.88,63.84,63.84,0,0,1,17.53,9.89q1.75,1.38,3.51,3c1.25,1.09,2.46,2.21,3.64,3.38a25.29,25.29,0,0,0-7.15-3.87,47.36,47.36,0,0,0-8.26-2.27,46.08,46.08,0,0,0-4.64-.49c-1.5-.09-3-.12-4.38-.12h-3.13l-2.76.24a22.65,22.65,0,0,0-4.63,1.25,33.46,33.46,0,0,0-3.88,2.14c-1.17.75-2.12,1.42-2.88,2s-1.3,1.12-1.63,1.37c-.67-.58-1.5-1.37-2.5-2.37a26,26,0,0,0-3.51-2.88,44.27,44.27,0,0,0-7.13-3.51,38.65,38.65,0,0,0-10.9-2.38,9.7,9.7,0,0,0-1.5-.13H221.9a58,58,0,0,0-12.77,1.51q-6.63,1.5-14.28,3.37l-2.76.76c-.92.25-1.83.55-2.75.87q-7.12,2.15-13.91,3.89a52.57,52.57,0,0,1-13.27,1.75h-1.37a6,6,0,0,1-1.26-.13,9.48,9.48,0,0,1-1.5-.12,6,6,0,0,1-1.25-.13c-1.75-.24-3.8-.58-6.14-1a32.23,32.23,0,0,1-19.41-10.78q-5.76-6.5-6-20.15a42.86,42.86,0,0,1,6.39-22.55,151,151,0,0,1,16.16-22,116.89,116.89,0,0,1,13-12.77,105,105,0,0,1,14-10,62.89,62.89,0,0,1,11.53-5.26,39.15,39.15,0,0,1,11-2.26h.25a9.94,9.94,0,0,1,6.51,2.38,8.31,8.31,0,0,1,3.27,5.89v2a3.74,3.74,0,0,1-.13,1A15.9,15.9,0,0,1,204,72.79a7.61,7.61,0,0,1-6,3.26h-.63a1,1,0,0,1-.49-.13,5.13,5.13,0,0,1-2.64-1.24,3.79,3.79,0,0,1-.75-2.26,5.67,5.67,0,0,1,.38-2,22.6,22.6,0,0,1,1.13-2,7.43,7.43,0,0,1,1.5-1.75,8.81,8.81,0,0,1,2-1.38,9.31,9.31,0,0,1,2.25-1.13,6,6,0,0,1,1.75-.38h.25v-1.5a.51.51,0,0,0-.12-.37,2.37,2.37,0,0,0-.88-1.5,5.26,5.26,0,0,0-2.88-.76Zm205.38-5.26a41.68,41.68,0,0,1,6.51.63,34.45,34.45,0,0,1,5.14,1.38c1,.41,2,.87,3,1.37s2.12,1.08,3.38,1.75l2.24,1.25c.84.43,1.68.89,2.51,1.38.25.18.51.34.75.5a3.12,3.12,0,0,1,.75.38c2.35,1.34,4.47,2.63,6.39,3.89s3.26,1.92,3.76,2.25l-9.14,9.64c-1.09-.58-2.13-1.17-3.13-1.75l-3-1.76c-.35-.17-.72-.33-1.13-.49a11.62,11.62,0,0,1-1.13-.76c-.76-.41-1.55-.83-2.38-1.25s-1.72-.84-2.63-1.25c-1.76-.92-3.34-1.75-4.76-2.51s-2.84-1.62-4.26-2.38a54.08,54.08,0,0,0-5.5-2.5,31.13,31.13,0,0,0-6.52-1.76,5.6,5.6,0,0,0-1.13-.12,3.9,3.9,0,0,0-.87-.13,10.16,10.16,0,0,0-1.63.13,7.14,7.14,0,0,0-1.25.37.36.36,0,0,0-.25.13h-.13a1.34,1.34,0,0,0-.63.13,1.11,1.11,0,0,1-.5.12,4.3,4.3,0,0,1,.26.76c.08.32.16.66.24,1,.09.59.17,1.3.25,2.14a10.72,10.72,0,0,1,.26,2.38,22.55,22.55,0,0,1-.26,3.5,18.15,18.15,0,0,1-.75,3c-.25.83-.54,1.67-.87,2.51a23.18,23.18,0,0,1-1,2.62,33.1,33.1,0,0,1-6.26,9.65,29.5,29.5,0,0,1-7.88,6.13,22.89,22.89,0,0,1-4.27,1.75,14.18,14.18,0,0,1-4,.63,7.79,7.79,0,0,1-2.75-.25,9.21,9.21,0,0,1-2.25-1,5.61,5.61,0,0,1-1.89-2.26,7.25,7.25,0,0,1-.62-3,14.67,14.67,0,0,1,.5-3.63c.33-1.25.76-2.55,1.26-3.89a32.9,32.9,0,0,1,1.75-3.88c.67-1.33,1.33-2.55,2-3.63a30.83,30.83,0,0,1,3.89-5,56.34,56.34,0,0,1,4.5-4.51,53.6,53.6,0,0,1,6-4.63,21.23,21.23,0,0,1,4.39-2.38l-.5-.26a1.94,1.94,0,0,0-.38-.24,2.82,2.82,0,0,0-.88-.38,3,3,0,0,0-1.37-.25h-.63a2.19,2.19,0,0,0-.75.13,31,31,0,0,0-5.77,1.87,45.38,45.38,0,0,0-6.63,3.39c-1,.67-2.05,1.37-3.13,2.13S359,68.83,358,69.67q-3.51,3-6.52,5.88c-2,1.83-3.84,3.67-5.5,5.51q-3,3.25-5.64,6.63t-5.13,7c-1.26,1.76-2.55,3.63-3.88,5.63s-2.56,4.1-3.89,6.27-2.67,4.42-3.75,6.51a47.35,47.35,0,0,0-2.76,6,55.15,55.15,0,0,0-2.5,8.88,50.85,50.85,0,0,0-.88,9.77,23.33,23.33,0,0,0,1.75,9.64,8.26,8.26,0,0,0,6.51,4.51l1.25.25h1.38a19.82,19.82,0,0,0,11.27-3.63,41.18,41.18,0,0,0,9.52-9.27c.09-.16.17-.33.26-.5a2.11,2.11,0,0,0,.36-.49,29.63,29.63,0,0,0,2.77-4.51q1.38-2.52,2.5-5.14a48.74,48.74,0,0,0,1.87-5.39,18.91,18.91,0,0,0,.76-4.88,6.23,6.23,0,0,0-.76-3.25,2.8,2.8,0,0,0-2.37-1.63h-.25a.12.12,0,0,1-.13-.13h-.5a5.41,5.41,0,0,0-4,1.63,30.08,30.08,0,0,0-3.14,3.38.11.11,0,0,0-.12.12h-.13c-.08.17-.16.34-.25.5l-.24.26a10.33,10.33,0,0,0-1.39,2.13,25.13,25.13,0,0,0-.87,2.62,38,38,0,0,0-1.13,4.39,5.27,5.27,0,0,1-.62,2.12c-.67.26-1.3.51-1.89.76s-.95.46-1.37.62c-.25.09-.46.17-.63.25a1.55,1.55,0,0,0-.38.26,4.67,4.67,0,0,0-1.12.62c-.33.17-.72.38-1.13.63-.25.17-.55.37-.88.63s-.54.36-.87.62a5.16,5.16,0,0,0-.76.63,4.68,4.68,0,0,1-.74.63c-1,.91-1.92,1.75-2.76,2.5s-1.25.92-1.5.74a1.38,1.38,0,0,1-.25-.62v-1.5a51.35,51.35,0,0,1,.37-5.39,39,39,0,0,1,1.76-7,30.46,30.46,0,0,1,1.88-4.64,18.32,18.32,0,0,1,2.75-4.26,26.14,26.14,0,0,1,7.76-6.51,18.68,18.68,0,0,1,9-2.38,11,11,0,0,1,1.74.12,6.3,6.3,0,0,1,1.76.26,8.26,8.26,0,0,1,5.63,3.51,11,11,0,0,1,1.75,6.25,25.86,25.86,0,0,1-.74,5.89,36.72,36.72,0,0,1-2.13,6.26,55.2,55.2,0,0,1-2.89,6.14q-1.5,2.88-3.13,5.5a51.11,51.11,0,0,1-13.65,14.41,27.85,27.85,0,0,1-16.65,5.63h-1.37a7.82,7.82,0,0,1-1.39-.13,32.55,32.55,0,0,1-14.65-4.76c-3.92-2.5-5.88-7.37-5.88-14.65a38.82,38.82,0,0,1,.25-4.37c.16-1.59.41-3.31.75-5.14a77.66,77.66,0,0,1,6.26-18.78A137.2,137.2,0,0,1,316,97.47c1.67-2.51,3.34-4.8,5-6.9s3.22-4,4.63-5.63c1-1.17,2.05-2.33,3.13-3.5l3.51-3.51A117.44,117.44,0,0,1,352.4,62.4a52.3,52.3,0,0,1,24.29-8h.62a10,10,0,0,1,2.88.37,15.62,15.62,0,0,1,2.51,1,14.62,14.62,0,0,1,1.5.88c.58.33,1.17.62,1.75.88a1.39,1.39,0,0,1,.63.38,4,4,0,0,1,.62.24q1.89-.87,3.51-1.5c1.17-.42,2.3-.8,3.38-1.13a28.57,28.57,0,0,1,4.64-.87,54.53,54.53,0,0,1,5.51-.25Zm-20.16,10a30.68,30.68,0,0,0-3.63,1.88A29.91,29.91,0,0,0,376.06,69a37,37,0,0,0-4,3.51,26.45,26.45,0,0,0-3.39,4.12,11.85,11.85,0,0,0-.74,1.14,7.47,7.47,0,0,1-.63,1c-.42.66-.83,1.33-1.26,2s-.7,1.38-1.12,2.12q-1.12,2.14-2,4.26a11.39,11.39,0,0,0-.76,3.76,3.73,3.73,0,0,0,.25,1.39,3.39,3.39,0,0,0,.75,1.12,6.85,6.85,0,0,0,1.13.75,7.33,7.33,0,0,0,1.37.13,8.58,8.58,0,0,0,2.76-.51,17,17,0,0,0,3-1.63,32.93,32.93,0,0,0,4-3.25,38,38,0,0,0,3.5-4l.5-.75.51-.75a31.9,31.9,0,0,0,3.75-8.14,25.66,25.66,0,0,0,.88-6c0-.92,0-1.8-.12-2.63a17.8,17.8,0,0,0-.38-2.25Zm47.71,32.05c-1.33,2.18-2.55,4.18-3.63,6s-2.09,3.51-3,5.26c-.67,1.25-1.34,2.55-2,3.89a42.36,42.36,0,0,0-1.88,4c-.41,1-.88,2-1.38,3s-.83,2.09-1.25,3.26c2.25-1.5,4.89-3.38,7.89-5.63A112.55,112.55,0,0,0,435.8,108c.49-.5,1-1,1.37-1.51l1.51-1.5c1.5-1.59,2.84-3,4-4.26S445,98.14,445.94,97c.42-.5.79-1,1.13-1.38s.83-1,1.25-1.5c.84-1,1.67-2.09,2.51-3.26s1.88-2.63,2.88-4.13l4.76-.89c-1,1.67-2,3.18-2.88,4.51s-1.84,2.64-2.76,3.89l-1.75,2.26a25.54,25.54,0,0,1-1.88,2.13c-1.08,1.33-2.25,2.67-3.51,4s-2.63,2.8-4.13,4.38-3.13,3.22-4.63,4.64-2.8,2.71-4.13,3.88l-3.51,3a36.47,36.47,0,0,1-3.51,2.63c-1.33,1-2.72,2-4.13,3l-4.63,3a9.16,9.16,0,0,0-1.13,2q-1,2-2.14,4.88a23.29,23.29,0,0,1-.87,2.26l-.75,2.25c-.5,1.51-.92,3-1.25,4.38a19.86,19.86,0,0,0-.37,3.64,4.35,4.35,0,0,0,.24,2.13,1.91,1.91,0,0,0,1.25,1.12.93.93,0,0,0,.38.13h.37a4.52,4.52,0,0,0,2.38-.76,15.25,15.25,0,0,0,2.51-1.87,19.62,19.62,0,0,0,1.88-1.88,25.54,25.54,0,0,0,1.88-2.13,14.31,14.31,0,0,1,1-1.13c.34-.41.66-.84,1-1.25q6.49-7.89,11.26-14.53a106.59,106.59,0,0,1,9.27-11.14c.75-.67,1.46-1.3,2.13-1.88a13.47,13.47,0,0,1,2.13-1.75,16,16,0,0,1,1.87-1.25,9,9,0,0,1,1.77-1,13,13,0,0,1,3.75-1.38,16.25,16.25,0,0,1,4.25-.5,12.71,12.71,0,0,1,4.14.5,7.1,7.1,0,0,1,2.25,1.12,3.88,3.88,0,0,1,.76.76l.62.62v.13h.13a2.14,2.14,0,0,1,.12-.63l.5-.75a.36.36,0,0,0,.13-.26,1.07,1.07,0,0,1,.25-.36c.08-.17.16-.34.25-.51l.37-.38a3.08,3.08,0,0,1,1.63-.24c1-.09,2.09-.13,3.26-.13H475c1.42,0,2.75,0,4,.13s1.93.21,2,.37-.93,2.17-3.26,6-4.71,8-7.39,12.64a6.79,6.79,0,0,0-.62,1,7.07,7.07,0,0,0-.5.88q-3.76,6.51-6.77,12.28t-2.87,7.51v.37c.07.09.17.17.24.26s.34.16.51.25H461a4.44,4.44,0,0,0,2.88-1,25.12,25.12,0,0,0,3.38-2.88q.63-.63,1.26-1.38l1.25-1.5c.33-.5.67-1,1-1.62s.79-1.19,1.12-1.76a4.66,4.66,0,0,0,.25-.5,1.66,1.66,0,0,0,.38-.63,17.06,17.06,0,0,1,2-2.88,2.14,2.14,0,0,1,2.26-.88c.83.34.54,1.88-.87,4.64a53.73,53.73,0,0,1-5.89,8.89,54.86,54.86,0,0,1-4.76,5.39,51.64,51.64,0,0,1-5.13,4.5,28.78,28.78,0,0,1-4.27,2.51,8.68,8.68,0,0,1-3.87,1,7.67,7.67,0,0,1-5-1.37,7.48,7.48,0,0,1-2.38-3c-.26-.74-.46-1.46-.63-2.13s-.17-1.16-.24-1.49c0-.09-.05-.13-.14-.13v-.25a3.54,3.54,0,0,1-.88,1.49,19.52,19.52,0,0,1-2.37,2.51,20,20,0,0,1-4.39,3,11.07,11.07,0,0,1-5.38,1.37c-3,0-5.14-.75-6.39-2.25a8.56,8.56,0,0,1-2-4.76,1.12,1.12,0,0,1-.13-.49v-.76a22.33,22.33,0,0,1,.13-2.38c.16-.83.28-1.54.37-2.12a9.56,9.56,0,0,1,.25-1,1.62,1.62,0,0,1,.26-.63c0,.34-.63,1.2-1.88,2.62a43.14,43.14,0,0,1-4.38,4.51l-1.89,1.64c-.66.57-1.33,1.12-2,1.62a29.2,29.2,0,0,1-4.13,2.89,7.51,7.51,0,0,1-3.51,1.11,7.24,7.24,0,0,1-5.76-2.62,9,9,0,0,1-2.25-6,31.34,31.34,0,0,1,.37-4.25c.34-1.84.71-3.71,1.13-5.63.17-.92.33-1.8.5-2.64a20,20,0,0,1,.63-2.37c.42-1.76.83-3.26,1.26-4.51a5.77,5.77,0,0,1,1-2.26l-4.88.76a29.56,29.56,0,0,1-2,3.74q-1.62,2.78-3.75,5.89-.63,1-1.38,2c-.42.59-.88,1.17-1.38,1.76a1.79,1.79,0,0,1-.37.5,2.25,2.25,0,0,1-.38.49,73,73,0,0,1-10,10.27A18.83,18.83,0,0,1,366.67,161H366a8.32,8.32,0,0,1-1.49-.12l-1.51-.25a11.64,11.64,0,0,1-4.63-2.75,8.16,8.16,0,0,1-2.51-5.52v-.87a.88.88,0,0,1-.13-.38v-.5a27.3,27.3,0,0,1,1.89-9.64A70.23,70.23,0,0,1,364.17,129a55.64,55.64,0,0,1,4.38-5.89c1.5-1.84,3-3.51,4.5-5A45.48,45.48,0,0,1,384.2,110c3.6-1.75,6.51-2.59,8.77-2.5a10.06,10.06,0,0,1,6.14,2.13q2.63,2,2.87,6.63v.5a13.93,13.93,0,0,1-.11,1.63c-.09.58-.17,1.17-.25,1.75a23.09,23.09,0,0,1-.64,2.26,11,11,0,0,1-.62,2c-.34.84-.63,1.55-.88,2.13a4,4,0,0,1-.62,1.12l4.26-1q1.25-3.27,2.25-5.76t2-4.76c.34-.84.67-1.59,1-2.25s.79-1.51,1.12-2.26c.84-1.51,1.71-3.09,2.63-4.77l3.38-5.63q2-3.25,4.51-6.76t5.38-7.27l4.52-5.5c1.58-1.93,3.21-3.76,4.88-5.51q4.63-5.15,9.14-9.39a67,67,0,0,1,8-6.51,44.31,44.31,0,0,1,8-4.39,16.58,16.58,0,0,1,5.51-1.13,12.34,12.34,0,0,1,1.88.13,6.17,6.17,0,0,1,1.75.25,3.71,3.71,0,0,1,2.63,1.5,5.31,5.31,0,0,1,1.12,3v.76a9.57,9.57,0,0,1-.12,1.5c-.08.5-.17,1.05-.25,1.63s-.38,1.37-.63,2.13-.49,1.29-.75,1.88-.62,1.2-.87,1.63a2,2,0,0,1-.63.74L465.1,71a4.93,4.93,0,0,0,.63-.87,7.23,7.23,0,0,0,.88-1.51l.75-1.51c.25-.58.46-1.11.63-1.62a6.85,6.85,0,0,0,.5-1.76,6.15,6.15,0,0,0,.25-1.62,3.15,3.15,0,0,0-.38-1.63,1.54,1.54,0,0,0-1.13-1H467a1.21,1.21,0,0,1-.13-.13h-.51q-3.5-.12-9.77,5.77a132.89,132.89,0,0,0-13.14,14.65q-3,3.89-6,8.14c-1.93,2.76-3.8,5.59-5.64,8.52Zm-57.35,39.33a3.12,3.12,0,0,1-.38.75,3.58,3.58,0,0,1-.25.63,21.79,21.79,0,0,1-.87,2l-.76,2a32.25,32.25,0,0,0-1.26,3.51,13,13,0,0,0-.37,2.88,4,4,0,0,0,.25,1.51,2.21,2.21,0,0,0,.88.87l.75.25a2.67,2.67,0,0,0,.88.13,8.27,8.27,0,0,0,3.25-.75,22.19,22.19,0,0,0,3.63-2,30.23,30.23,0,0,0,2.64-2.12,25.6,25.6,0,0,0,2.37-2.76c.34-.42.8-1,1.38-1.87s1.34-1.89,2-2.89l.26-.5a2.21,2.21,0,0,0,.37-.5c.67-1.08,1.29-2.14,1.88-3.13a18.94,18.94,0,0,0,1.13-2.38c-.84-.08-1.59-.17-2.25-.25a7.54,7.54,0,0,1-1.88-.75,5.11,5.11,0,0,1-1-.38,3.71,3.71,0,0,0-.88-.63,13.81,13.81,0,0,1-2.88-2.37,15.69,15.69,0,0,1-1.88-3.14A19.93,19.93,0,0,0,379.7,126c-.5.76-1,1.47-1.38,2.14s-.63,1.12-.88,1.63l-.75,1.5c-.42.75-.8,1.5-1.13,2.25s-.71,1.42-1.12,2.26Zm83.89-21.29a4.6,4.6,0,0,1-.74.63,4.47,4.47,0,0,1-.63.5,33.27,33.27,0,0,0-4.25,4.26c-1.59,1.83-3.93,4.85-7,9-.66,1-1.33,2-2,3.13s-1.19,2-1.77,3a54,54,0,0,0-2.87,6.89,19,19,0,0,0-1,5.39,7.41,7.41,0,0,0,.12,1.5,1.87,1.87,0,0,0,.63.88,1.24,1.24,0,0,1,.37.24,1.07,1.07,0,0,0,.5.13.52.52,0,0,0,.38.12h.37a3.93,3.93,0,0,0,3.13-1.37,20.57,20.57,0,0,0,2.88-3.26,4.3,4.3,0,0,0,.63-.76,9.61,9.61,0,0,1,.5-.87q4.77-7.52,8.77-14.28t8-13.27a6.3,6.3,0,0,0,.51-1,3.14,3.14,0,0,1,.24-.75.82.82,0,0,0-.38-.75,2.19,2.19,0,0,0-.62-.63h-.25c0-.09,0-.13-.12-.13a1.48,1.48,0,0,0-.63-.12,1,1,0,0,0-.5-.12,5.3,5.3,0,0,0-1.87.37,10.57,10.57,0,0,0-2.4,1.38ZM393.72,127.9c.17,0,.34-.13.51-.38s.33-.5.49-.75a14.2,14.2,0,0,0,1.13-2.76,23.75,23.75,0,0,0,1-3.25,9.5,9.5,0,0,0,.13-1.5,9.57,9.57,0,0,0,.12-1.5v-.39a5.38,5.38,0,0,0-.75-2.75,3,3,0,0,0-1.25-1.25,1,1,0,0,0-.5-.12,1,1,0,0,0-.51-.13h-.5a4.29,4.29,0,0,0-1.37.25,10.4,10.4,0,0,0-1.38.38,12.52,12.52,0,0,0-2.75,1.75,17.15,17.15,0,0,0-2.14,2.26,7.83,7.83,0,0,0-1,1.5,5.43,5.43,0,0,0-.49,1.37v.13a3.89,3.89,0,0,0,.37,1.5,10.62,10.62,0,0,0,1.26,1.75,13.56,13.56,0,0,0,2.75,2.76,8.83,8.83,0,0,0,3.5,1.38H393a.38.38,0,0,0,.25-.13h.5Zm-125.86,6.64q-3.37.12-5-1.26a8.7,8.7,0,0,1-2.38-3c-.25-.76-.46-1.46-.62-2.13s-.17-1.33-.25-1.76c0-.08,0-.12-.13-.12V126a4.2,4.2,0,0,1-.87,1.63,20.54,20.54,0,0,1-2.39,2.51,20,20,0,0,1-4.37,3,11,11,0,0,1-5.39,1.38q-4.51,0-6.39-2.13a9.23,9.23,0,0,1-2-4.89,1.32,1.32,0,0,1-.13-.62v-.76a20.1,20.1,0,0,1,.13-2.38c.16-.83.29-1.54.37-2.12a9,9,0,0,1,.26-1,1.61,1.61,0,0,1,.24-.62c0,.33-.62,1.21-1.87,2.63a44.11,44.11,0,0,1-4.89,4.63,65.93,65.93,0,0,1-6.39,4.38,21.94,21.94,0,0,1-7.13,2.64c-.51.08-1,.17-1.38.25h-2.13q-6.64-.37-8.89-3.26a13.67,13.67,0,0,1-2.64-7.52v-.37a21.92,21.92,0,0,1,.5-4q.63-2.5,1.51-5.13a14.91,14.91,0,0,1,.63-2c.26-.75.5-1.47.75-2.14a45.26,45.26,0,0,1,1.75-4.51,7.06,7.06,0,0,1,1.25-2.12l-6.14,1.13a30.51,30.51,0,0,1-2,3.75q-1.51,2.76-3.64,5.89c-.42.66-.88,1.33-1.37,2l-1.51,2a2,2,0,0,1-.37.51,2.28,2.28,0,0,1-.38.5,79.33,79.33,0,0,1-10,10.39,19,19,0,0,1-11.28,4.89h-.62a9.72,9.72,0,0,1-1.51-.13l-1.5-.25a12.25,12.25,0,0,1-4.63-2.63,8.74,8.74,0,0,1-2.51-5.76v-.87a.88.88,0,0,1-.13-.39V124a27.68,27.68,0,0,1,1.88-9.64,70.42,70.42,0,0,1,6.52-11.9,55.48,55.48,0,0,1,4.38-5.88c1.5-1.83,3-3.51,4.51-5a44.75,44.75,0,0,1,11.14-8.14c3.59-1.75,6.51-2.59,8.78-2.51a10.15,10.15,0,0,1,6.12,2.13q2.64,2,2.89,6.64v.5a14.16,14.16,0,0,1-.13,1.88,11.09,11.09,0,0,1-.38,1.89,21.43,21.43,0,0,1-.62,2.24,12,12,0,0,1-.63,1.89,23.81,23.81,0,0,1-1,2.38,2.25,2.25,0,0,1-.63,1h.5a1,1,0,0,1,.51-.13,10.7,10.7,0,0,0,2.5-.38,12,12,0,0,0,3.75-2,49.07,49.07,0,0,0,4-3.25c1.08-1,2.08-2,3-3a1.78,1.78,0,0,0,.37-.26c.08-.09.22-.21.38-.38.75-.67,1.55-1.37,2.38-2.13s1.8-1.55,2.88-2.37a51.4,51.4,0,0,1,5.77-3.89,22.28,22.28,0,0,1,5-2.38c.67-.16,1.29-.29,1.88-.38a13,13,0,0,1,1.76-.12h.75a1,1,0,0,0,.37.12h.37a9.64,9.64,0,0,1,5.64,2.26,6.42,6.42,0,0,1,2.51,5.26v.38a11.45,11.45,0,0,1-1.88,6,16.74,16.74,0,0,1-3.63,4.25,11.5,11.5,0,0,1-2.26,1.39,4.06,4.06,0,0,1-1.75.49h-.38a3.43,3.43,0,0,1-2.37-1.25,4.22,4.22,0,0,1-.76-2.38v-.75a4.48,4.48,0,0,1,.26-.63,10.21,10.21,0,0,1,.36-1.5,9.53,9.53,0,0,1,.76-1.25,8,8,0,0,1,1.38-1.5c.49-.42,1-.79,1.5-1.14a7.91,7.91,0,0,1,2.63-1.12,7.24,7.24,0,0,1,1.88-.37h.25l-.12-.13v-.5a1,1,0,0,0-.13-.5,2.61,2.61,0,0,0-1-.76,5.3,5.3,0,0,0-2.38-.37,7.23,7.23,0,0,0-3.88,1.75,36.67,36.67,0,0,0-5,4.26q-1.62,1.76-3.24,3.76a34.93,34.93,0,0,0-3,4c-.24.34-.5.71-.75,1.14a5.45,5.45,0,0,1-.63,1c-.75,1.25-1.5,2.64-2.25,4.13s-1.46,3-2.13,4.51a64.89,64.89,0,0,0-2.25,6.51,20,20,0,0,0-.88,5.27,5.58,5.58,0,0,0,.25,1.76,2.19,2.19,0,0,0,.76,1.11l.49.26a3,3,0,0,0,.88.12,12.76,12.76,0,0,0,4.51-1.12,36.67,36.67,0,0,0,5.63-3.25,49.61,49.61,0,0,0,4.76-3.52,31.06,31.06,0,0,0,4.14-4.13q6.52-7.89,11.27-14.52a104.35,104.35,0,0,1,9.27-11.15c.75-.66,1.45-1.3,2.12-1.88a13.47,13.47,0,0,1,2.13-1.75A20.57,20.57,0,0,1,266,83.81a9.84,9.84,0,0,1,1.76-1,13.68,13.68,0,0,1,3.76-1.37,16.18,16.18,0,0,1,4.25-.51,12.59,12.59,0,0,1,4.13.51,7.06,7.06,0,0,1,2.26,1.12,3.31,3.31,0,0,1,.75.75l.62.63v.13h.13a1.91,1.91,0,0,1,.13-.63c.16-.25.33-.51.5-.75a.37.37,0,0,0,.12-.25,1.32,1.32,0,0,1,.26-.38c.08-.16.15-.33.24-.5l.37-.37a2.93,2.93,0,0,1,1.63-.26c1-.08,2.1-.12,3.26-.12h.75c1.42,0,2.76,0,4,.12s1.92.22,2,.38-.91,2.17-3.25,6-4.72,8-7.39,12.65a6.12,6.12,0,0,0-.63,1c-.15.25-.33.54-.5.88q-3.75,6.51-6.76,12.27c-1.92,3.75-2.88,6.27-2.88,7.52V122l.25.24.5.26h.63a4.5,4.5,0,0,0,2.88-1,24.52,24.52,0,0,0,3.38-2.88c.41-.41.83-.87,1.25-1.38l1.25-1.5c.34-.5.67-1,1-1.63s.79-1.17,1.12-1.75c.08-.17.17-.34.26-.5a1.7,1.7,0,0,0,.37-.63,17.48,17.48,0,0,1,2-2.88,2.06,2.06,0,0,1,2.25-.87c.84.33.55,1.88-.86,4.63A47.36,47.36,0,0,1,285.9,121a51,51,0,0,1-4.76,5.51,42.81,42.81,0,0,1-5.14,4.63,29.13,29.13,0,0,1-4.25,2.51,8.83,8.83,0,0,1-3.89,1Zm-86.79-25.43a3.13,3.13,0,0,1-.37.76,5.67,5.67,0,0,1-.25.62,19.33,19.33,0,0,1-.88,2l-.75,2a32.09,32.09,0,0,0-1.26,3.51,13.52,13.52,0,0,0-.37,2.88,4,4,0,0,0,.25,1.5,2.15,2.15,0,0,0,.88.87l.75.25a2.63,2.63,0,0,0,.88.13,8.31,8.31,0,0,0,3.25-.75,23.39,23.39,0,0,0,3.64-2c.92-.67,1.79-1.39,2.63-2.13a25.6,25.6,0,0,0,2.37-2.76c.35-.42.8-1,1.39-1.88s1.33-1.87,2-2.88c.08-.17.16-.34.25-.5a2.21,2.21,0,0,0,.37-.5c.67-1.09,1.29-2.13,1.88-3.13a18.3,18.3,0,0,0,1.13-2.38c-.84-.08-1.59-.17-2.26-.25a7.11,7.11,0,0,1-1.87-.75,4.84,4.84,0,0,1-1-.37,3.48,3.48,0,0,0-.88-.64,13.91,13.91,0,0,1-2.89-2.38,15.49,15.49,0,0,1-1.87-3.12,19.31,19.31,0,0,0-1.75,2.25c-.52.76-1,1.46-1.39,2.13s-.62,1.12-.88,1.63-.49,1-.75,1.5c-.41.75-.79,1.5-1.12,2.25l-1.13,2.26Zm93.18-21.29a5.22,5.22,0,0,1-.75.63,3.85,3.85,0,0,1-.63.5,33.92,33.92,0,0,0-4.26,4.26q-2.37,2.75-7,9c-.67,1-1.34,2-2,3.14l-1.75,3a53.05,53.05,0,0,0-2.89,6.89,19,19,0,0,0-1,5.38,8.09,8.09,0,0,0,.13,1.51,1.81,1.81,0,0,0,.62.87,1.56,1.56,0,0,1,.37.25,1.07,1.07,0,0,0,.5.13.51.51,0,0,0,.38.12h.38a3.93,3.93,0,0,0,3.13-1.37,21.56,21.56,0,0,0,2.88-3.26,4.55,4.55,0,0,0,.62-.75,8.58,8.58,0,0,1,.51-.88q4.75-7.5,8.76-14.27c2.76-4.6,5.43-9,8-13.28a5.37,5.37,0,0,0,.5-1A4.6,4.6,0,0,1,281,88a.86.86,0,0,0-.37-.76,2.48,2.48,0,0,0-.63-.62h-.25c0-.08,0-.13-.12-.13a1.48,1.48,0,0,0-.63-.12,1.18,1.18,0,0,0-.5-.12,5.45,5.45,0,0,0-1.89.37A10.69,10.69,0,0,0,274.25,88Zm-73.89,13.53c.17,0,.34-.13.5-.38l.51-.74a15.18,15.18,0,0,0,1.12-2.76,24.31,24.31,0,0,0,1-3.26,9.55,9.55,0,0,0,.12-1.49,8.75,8.75,0,0,0,.13-1.52v-.37a5.53,5.53,0,0,0-.75-2.76,3,3,0,0,0-1.25-1.25,1.16,1.16,0,0,0-.51-.12,1,1,0,0,0-.49-.13h-.51a4.29,4.29,0,0,0-1.37.25,11.49,11.49,0,0,0-1.38.37A12.58,12.58,0,0,0,194.73,89a18.44,18.44,0,0,0-2.14,2.25,7.88,7.88,0,0,0-1,1.52,4.5,4.5,0,0,0-.5,1.37v.12a4,4,0,0,0,.37,1.51,11.74,11.74,0,0,0,1.26,1.75,14.36,14.36,0,0,0,2.75,2.76A8.88,8.88,0,0,0,199,101.6h.63a.39.39,0,0,0,.24-.12h.5Zm117-20.54c.18.17,0,.84-.61,2a40.09,40.09,0,0,1-1.89,3.76c-.08.17-.17.33-.24.5a1.19,1.19,0,0,0-.25.38c-.67,1.17-1.31,2.25-1.89,3.26a6.18,6.18,0,0,1-1.12,1.49,6.31,6.31,0,0,1-1.75.38c-1.09.09-2.25.14-3.51.14H304.8a25.76,25.76,0,0,1-2.75-.14,2.67,2.67,0,0,1-1.38-.38c-.16-.25,0-.91.51-2s1.12-2.3,1.87-3.63c.09-.25.17-.45.25-.62s.34-.51.5-.77c.67-1.08,1.25-2,1.75-2.86a4.15,4.15,0,0,1,1.26-1.39,7.07,7.07,0,0,1,1.62-.25c1-.09,2.09-.12,3.26-.12h.38c1.25,0,2.42,0,3.5.12s1.67.08,1.75.25ZM472.36,70A47.12,47.12,0,0,0,477,68.16c1.42-.67,2.75-1.33,4-2,5-2.93,8.39-5.59,10.14-8s3.18-3.55,4.26-3.38l.13.13h.12c1,.42.59,2-1.25,4.88a53.27,53.27,0,0,1-8,9.27,79.89,79.89,0,0,1-7.51,6.13,42.79,42.79,0,0,1-8.52,5c-1.91.92-3.75,1.72-5.5,2.38a39.09,39.09,0,0,1-5,1.63c-1.42.34-2.88.63-4.38.88a44.9,44.9,0,0,1-4.76.25c-1.17,0-2.46,0-3.88-.14a38.17,38.17,0,0,1-4.26-.49l8-10.65a50.72,50.72,0,0,0,6.39-.12,39.86,39.86,0,0,0,5.76-.88,29.71,29.71,0,0,0,4.51-1.12c1.59-.5,3.3-1.09,5.13-1.75Z"></path><rect class="cls-2" x="33.23" y="214.43" width="554.96" height="146.76"></rect><path class="cls-1" d="M156.37,236.66l4.93,22.79c.21,1-1.45,1.19-1.77.24-3.42-9.86-13.95-16.37-26.95-16.37H121.14V283.7h22.93c5.2,0,8.15-5.13,7.76-9.46-.1-1.25,1.82-2.19,2.21-.43l7.57,33.3c.25,1.11-1.74,1.14-2,.17-3.58-13.18-20.9-16.8-28.56-16.8h-9.92V327.2c0,5.45,3.57,8.71,8,10.11,1.5.48,1.14,2.28-.75,2.28H83.52V247.7c0-5-4.23-9-7.76-9.08-1.21,0-1.13-2-.14-2Zm291.23,28.7c.07,1.14-1.05,1.82-2,.4-3.38-4.91-13.76-16.13-25.06-16.47-5.5-.17-10.75,1.69-10.89,7.14-.42,15.34,45.44,11,43.58,53.61-.95,21.65-20.85,32.45-38.06,32.4a52.6,52.6,0,0,1-33.45-11.78V304.49a.94.94,0,0,1,1.75-.59c5.89,9.56,15.34,18.05,24.06,19.31,4.11.6,10.46,0,12.44-6,5.7-17.31-41.5-15.32-41.73-52.29-.14-23.09,19.64-31,34.33-31.67,16.43-.8,33.4,7,33.4,7Zm-206.33-28.7,4.94,22.79c.21,1-1.45,1.19-1.77.24-3.41-9.86-13.95-16.37-26.94-16.37H206.05V283.7H229c5.21,0,8.15-5.13,7.77-9.46-.11-1.25,1.81-2.19,2.21-.43l7.57,33.3c.25,1.11-1.75,1.14-2,.17-3.56-13.18-20.88-16.8-28.55-16.8h-9.92V332.7h8.55c14.9,0,26.52-6.73,29.75-16.24.46-1.36,2.29-1.11,2,.06L241,339.59H168.43V247.7c0-5-4.23-9-7.75-9.08-1.21,0-1.14-2-.15-2Zm241.57-2.77,52.77,96.42c2.62,4.78,5.61,5.6,10,7,1.51.48,1.15,2.28-.74,2.28H504.55c-5.84,0-10.65-3.11-13.75-9L474.61,300c-3.5-6.63-14.79-5.39-17.81,4-.51,1.6-2.73,1-2.13-.57L482,233.89ZM375,236.66V327.2c0,5.45,3.58,8.71,8,10.11,1.51.48,1.16,2.28-.74,2.28H337.39V269.85L308.77,342h-.66l-40.63-73.62V327.2c0,5.45,3.57,8.71,8,10.11,1.5.48,1.15,2.28-.75,2.28H253.37V247.7c0-5-4.24-9-7.77-9.08-1.2,0-1.13-2-.13-2h42.25a11.73,11.73,0,0,1,10.17,5.79l17.89,32c2.83,5.06,10.42,4.47,11.46-1.74L333,238a1.61,1.61,0,0,1,1.75-1.35Z"></path></svg> 